<?xml version="1.0" standalone="no"?>
<!DOCTYPE svg PUBLIC "-//W3C//DTD SVG 20010904//EN"
 "http://www.w3.org/TR/2001/REC-SVG-20010904/DTD/svg10.dtd">
<svg  style='stroke-width: 0px; background-color:rgb(102, 146, 175);' version="1.0" xmlns="http://www.w3.org/2000/svg"
 width="809.000000pt" height="950.000000pt" viewBox="0 0 809.000000 950.000000"
 preserveAspectRatio="xMidYMid meet">
<metadata>
Created by potrace 1.14, written by Peter Selinger 2001-2017
</metadata>

<g   transform="translate(0.000000,950.000000) scale(0.100000,-0.100000)"
fill="#8fd0ab" stroke="#54c48f">
<defs>
    <clipPath id="cut-off-bottom">
      <circle cx="4000" cy="5000" r="4000"  />
    </clipPath>
  </defs>
<path clip-path="url(#cut-off-bottom)" d="M0 4750 l0 -4750 4045 0 4045 0 0 4750 0 4750 -4045 0 -4045 0 0
-4750z m4270 3455 c7 -9 21 -13 30 -10 17 5 26 -16 35 -80 1 -5 7 -21 12 -35
13 -32 7 -49 -16 -43 -14 4 -20 -3 -25 -29 -4 -20 -2 -34 4 -36 6 -2 4 -9 -6
-17 -15 -11 -16 -19 -7 -66 17 -83 17 -84 28 -91 6 -5 5 -11 -3 -16 -10 -7
-10 -11 3 -22 9 -7 15 -20 14 -29 -1 -9 1 -24 5 -33 5 -10 1 -30 -7 -48 -9
-16 -11 -30 -6 -30 17 0 9 -20 -8 -21 -13 0 -14 -2 -4 -6 11 -5 11 -7 0 -14
-10 -6 -11 -9 -1 -9 6 0 12 -4 12 -9 0 -5 -8 -7 -18 -4 -10 2 -31 -3 -47 -11
-40 -21 -109 -22 -101 -1 3 8 1 14 -3 12 -5 -1 -8 1 -8 4 1 3 -4 13 -11 22 -8
9 -11 21 -7 27 12 20 -13 9 -27 -12 -15 -23 -43 -17 -34 8 7 19 -18 18 -34 -1
-7 -8 -21 -15 -31 -15 -11 0 -18 -3 -17 -7 1 -5 -5 -20 -12 -36 -11 -22 -19
-27 -45 -24 -17 2 -37 7 -44 11 -7 5 -38 9 -69 10 -31 2 -77 11 -102 20 -65
26 -105 22 -171 -19 -31 -19 -61 -35 -66 -35 -4 0 -19 -14 -33 -31 -14 -17
-31 -37 -37 -44 -15 -16 -17 -49 -3 -40 6 4 8 11 5 16 -4 5 0 9 8 9 8 0 17 7
21 15 3 8 14 15 24 15 11 0 25 7 32 14 25 31 205 51 234 27 35 -29 19 -44 -57
-55 -37 -6 -44 -9 -105 -40 -18 -10 -43 -23 -55 -29 -37 -19 -80 -64 -69 -71
6 -3 36 3 67 15 58 22 85 20 85 -5 0 -43 111 -64 144 -27 13 14 16 28 11 55
-7 37 1 46 23 24 15 -15 16 -54 2 -63 -20 -12 -9 -25 23 -26 30 -1 29 -2 -10
-10 -24 -4 -51 -12 -60 -18 -16 -9 -16 -11 6 -19 21 -7 22 -10 7 -15 -10 -4
-15 -11 -11 -16 3 -6 -2 -14 -11 -19 -9 -5 -14 -14 -10 -20 24 -39 155 -9 187
43 11 17 19 38 19 48 0 22 20 58 43 75 9 7 24 27 33 43 10 21 19 28 27 22 7
-5 35 -10 62 -11 78 -5 100 -32 120 -151 25 -151 27 -164 30 -205 2 -21 8 -43
14 -49 17 -17 13 -79 -8 -117 -26 -49 -75 -60 -131 -31 -53 27 -82 27 -118 -4
-36 -30 -65 -32 -92 -5 -30 30 -30 70 1 113 l20 28 -38 -16 c-21 -9 -51 -25
-68 -35 -16 -11 -42 -25 -57 -31 -16 -6 -28 -17 -28 -25 0 -13 -18 -52 -30
-64 -22 -22 -44 -88 -42 -127 1 -25 -3 -54 -9 -64 -17 -33 7 -21 55 26 26 25
50 45 54 45 13 1 92 114 92 132 0 23 6 23 36 -1 18 -14 43 -19 110 -20 48 -1
91 -4 94 -6 3 -2 2 -31 -4 -64 -5 -33 -8 -62 -5 -64 2 -2 16 -7 30 -11 24 -5
29 -2 43 34 24 60 44 53 48 -16 2 -22 7 -42 13 -46 22 -16 -29 -39 -70 -32
-59 10 -67 8 -147 -27 -77 -34 -158 -50 -158 -31 0 6 10 14 22 18 21 6 21 7 3
20 -22 16 -75 19 -75 4 0 -5 -9 -10 -20 -10 -10 0 -32 -16 -47 -35 -15 -19
-34 -35 -41 -35 -19 0 -11 -93 10 -114 22 -21 38 -20 38 2 0 9 17 36 38 60
l37 44 105 9 c58 5 160 6 228 3 115 -7 122 -8 122 -28 0 -37 -15 -49 -52 -42
-19 3 -48 2 -64 -3 -16 -5 -42 -12 -57 -15 -15 -4 -25 -11 -22 -16 3 -6 -1
-10 -9 -10 -9 0 -16 -4 -16 -10 0 -5 -9 -10 -20 -10 -13 0 -18 -5 -14 -15 4
-8 1 -15 -6 -15 -6 0 -8 -5 -4 -12 4 -7 3 -8 -5 -4 -6 4 -18 1 -26 -8 -19 -19
-19 -30 1 -22 8 3 12 2 9 -4 -4 -6 27 -10 84 -10 98 0 136 -11 146 -44 10 -30
6 -48 -16 -69 -11 -10 -26 -29 -35 -42 -16 -25 -74 -52 -74 -34 0 5 -10 3 -23
-6 -13 -8 -34 -15 -48 -15 -13 0 -38 -2 -56 -6 -21 -4 -39 -1 -55 10 -12 9
-37 16 -54 16 -17 0 -37 7 -44 15 -9 10 -9 15 -1 15 6 0 11 5 11 11 0 6 -10 9
-23 7 -13 -2 -29 2 -36 9 -7 8 -21 11 -31 8 -13 -4 -23 1 -32 14 -7 12 -17 21
-22 21 -4 0 -3 -7 4 -15 10 -13 9 -15 -9 -15 -12 0 -21 6 -21 15 0 24 -31 31
-46 10 -8 -10 -14 -14 -14 -8 0 6 -2 18 -5 26 -5 11 4 13 45 11 47 -2 51 -1
48 19 -2 13 2 21 10 19 14 -2 16 14 2 23 -12 7 -50 -3 -49 -13 5 -29 -3 -34
-41 -29 -22 3 -40 1 -40 -4 0 -20 -29 -7 -68 30 -26 25 -37 42 -31 48 14 14
-6 27 -71 47 -74 23 -74 23 -84 24 -5 0 -12 6 -17 13 -6 10 -13 10 -31 2 -13
-6 -37 -11 -54 -11 -39 2 -108 -63 -112 -105 -1 -15 3 -27 8 -27 6 0 10 5 10
11 0 5 5 7 11 3 8 -5 6 -10 -5 -16 -17 -10 -22 -58 -6 -58 6 0 10 9 10 20 0
27 18 25 22 -2 3 -20 8 -23 40 -20 30 2 40 -2 57 -27 14 -19 17 -31 10 -33 -7
-2 -1 -16 15 -33 15 -16 24 -35 22 -42 -3 -7 -1 -13 3 -13 5 0 7 -9 4 -20 -3
-11 2 -36 12 -55 10 -22 15 -55 14 -85 -2 -27 2 -55 9 -62 6 -8 16 -26 21 -41
15 -39 28 -26 30 30 2 69 9 131 15 142 4 5 2 12 -3 16 -6 3 -8 12 -4 20 3 8 1
15 -5 15 -5 0 -12 10 -15 23 -3 12 -8 33 -12 47 -6 20 -5 22 5 10 10 -13 11
-12 6 3 -3 10 -6 25 -6 33 0 9 -8 14 -17 13 -33 -3 -37 1 -17 16 12 9 14 14 6
15 -7 0 -11 4 -7 10 3 5 -7 17 -22 27 -36 22 -43 33 -43 61 0 13 -4 21 -9 17
-5 -3 -12 -1 -16 4 -8 13 27 31 60 31 71 0 109 -20 155 -81 25 -32 51 -66 59
-74 7 -9 11 -27 8 -40 -2 -14 -1 -25 2 -25 12 0 30 -64 36 -129 3 -35 10 -70
16 -77 6 -7 8 -18 4 -25 -4 -6 -3 -14 2 -18 6 -3 14 -19 20 -36 5 -17 24 -38
43 -49 31 -18 35 -19 84 -3 28 9 67 19 86 23 56 10 143 58 315 173 182 122
213 138 221 117 3 -8 15 -16 26 -20 18 -4 19 -7 8 -20 -7 -9 -9 -16 -4 -16 5
0 -2 -7 -14 -16 -12 -8 -22 -20 -22 -25 0 -16 -65 -98 -136 -171 -58 -61 -63
-70 -52 -88 20 -31 96 -31 140 0 58 42 101 61 111 51 8 -8 7 -11 -2 -11 -6 0
-19 -16 -27 -36 -8 -20 -26 -53 -39 -73 -14 -20 -26 -45 -28 -56 -2 -11 -12
-46 -22 -79 -15 -46 -27 -64 -55 -82 -19 -13 -42 -34 -50 -46 -8 -12 -27 -33
-42 -47 -18 -16 -28 -36 -28 -54 0 -15 -6 -30 -14 -33 -8 -3 -12 -12 -9 -20 3
-8 -1 -14 -11 -14 -12 0 -15 -6 -10 -25 4 -15 2 -25 -5 -25 -6 0 -11 10 -12
23 0 19 -2 19 -11 -7 -8 -21 -7 -30 1 -36 9 -5 8 -10 -4 -20 -13 -11 -15 -9
-15 15 0 33 -12 26 -14 -7 -1 -13 7 -29 17 -36 17 -13 18 -14 0 -27 -17 -13
-17 -14 0 -20 9 -4 17 -17 17 -29 0 -16 -2 -18 -9 -7 -7 11 -11 9 -20 -8 -7
-11 -19 -21 -27 -21 -8 0 -13 -4 -9 -9 3 -5 1 -12 -4 -16 -6 -3 -8 -12 -4 -20
3 -8 0 -15 -5 -15 -6 0 -10 -8 -10 -17 0 -10 -3 -26 -7 -35 -6 -15 -2 -18 21
-19 16 -1 32 -1 37 0 12 2 8 -17 -9 -34 -9 -8 -13 -22 -10 -30 3 -8 1 -17 -4
-20 -5 -3 -9 -16 -8 -29 1 -12 -8 -36 -20 -53 -12 -17 -22 -35 -22 -40 0 -16
-59 -75 -70 -68 -6 4 -10 -8 -10 -33 0 -26 -5 -42 -15 -46 -8 -3 -12 -12 -9
-21 4 -8 -1 -17 -10 -21 -9 -3 -16 -14 -16 -23 0 -9 -9 -34 -20 -55 -10 -22
-17 -43 -14 -47 3 -5 -1 -9 -9 -9 -8 0 -15 -10 -16 -22 -1 -13 -3 -36 -5 -53
-1 -16 -4 -38 -4 -47 -1 -10 -14 -21 -28 -24 -18 -5 -22 -9 -13 -15 9 -5 10
-11 2 -21 -16 -21 -9 -62 15 -86 25 -25 28 -41 10 -43 -7 -1 9 -5 36 -10 31
-5 59 -17 76 -34 28 -27 28 -27 28 -162 0 -74 -4 -148 -8 -164 -6 -18 -5 -31
2 -35 7 -4 8 -2 4 4 -4 7 -3 12 3 12 5 0 23 -20 40 -45 17 -25 26 -45 21 -45
-6 0 -6 -9 0 -24 5 -14 7 -49 5 -78 -6 -67 14 -189 32 -205 11 -8 19 -6 38 11
19 18 23 29 18 57 -2 19 -8 39 -13 44 -10 13 -17 105 -8 105 3 0 17 -21 30
-46 12 -25 29 -57 37 -72 8 -15 15 -47 15 -72 l1 -44 -49 -9 c-37 -6 -54 -4
-72 8 -13 8 -32 15 -44 15 -11 0 -20 4 -20 9 0 5 -18 27 -40 51 -21 23 -42 50
-45 61 -12 36 -20 19 -16 -32 2 -29 -2 -56 -8 -62 -6 -6 -11 -24 -11 -40 0
-34 -17 -70 -31 -62 -5 4 -9 26 -9 49 0 26 -6 48 -14 56 -8 6 -20 28 -27 48
-6 20 -15 42 -20 48 -4 5 -13 44 -20 85 -6 40 -14 76 -18 79 -4 3 -20 28 -36
55 -15 28 -39 63 -51 78 -13 15 -26 44 -29 65 -9 51 -47 194 -51 190 -1 -2 2
-39 7 -83 6 -44 12 -89 13 -100 1 -12 5 -25 7 -30 3 -6 7 -46 8 -90 1 -44 7
-85 12 -92 7 -7 6 -13 -1 -18 -5 -3 -10 -1 -10 4 0 6 -7 11 -16 11 -8 0 -13 4
-10 9 3 4 -8 34 -24 66 -17 32 -28 61 -25 63 3 3 -3 17 -12 31 -9 14 -25 51
-34 81 l-18 55 0 -50 c-1 -45 19 -147 50 -260 8 -29 22 -48 51 -68 22 -16 43
-37 45 -48 3 -10 12 -19 20 -19 11 0 11 -4 3 -20 -9 -16 -8 -18 5 -14 8 4 16
10 16 15 1 5 2 14 3 21 4 35 27 8 64 -74 66 -148 66 -146 38 -171 -13 -12 -52
-43 -87 -68 -61 -44 -92 -63 -234 -139 -33 -18 -73 -40 -90 -50 -16 -10 -41
-21 -55 -25 -14 -4 -36 -16 -50 -27 -15 -12 -33 -17 -47 -13 -16 4 -23 1 -23
-9 0 -8 -5 -18 -10 -21 -6 -4 -10 5 -8 23 1 22 6 28 17 24 10 -4 12 -1 7 7 -6
9 -2 12 10 10 26 -3 74 11 74 22 0 5 9 9 20 9 11 0 20 7 20 15 0 8 6 15 14 15
7 0 19 6 25 14 7 8 21 13 32 11 10 -2 19 0 19 5 0 30 114 110 157 110 15 0 15
2 -3 16 -15 12 -16 15 -2 10 9 -2 22 2 29 10 6 8 17 13 23 11 24 -9 48 14 42
39 -5 19 -2 26 14 32 l21 8 -21 21 c-11 12 -17 28 -14 36 3 9 -3 17 -18 21
-22 7 -22 7 -3 15 19 8 19 8 -3 15 -13 4 -21 10 -18 13 2 3 -4 15 -15 26 -17
19 -21 20 -29 7 -8 -12 -9 -9 -8 10 2 14 -2 25 -9 26 -7 1 -14 2 -15 4 -16 12
-37 4 -43 -17 -5 -20 -8 -23 -20 -13 -12 10 -17 7 -29 -21 -7 -19 -17 -43 -21
-54 -5 -11 -7 -26 -6 -33 1 -8 -6 -30 -15 -50 -10 -21 -17 -42 -16 -49 4 -19
-60 -144 -80 -156 -10 -7 -18 -17 -18 -24 0 -7 -7 -13 -15 -13 -12 0 -14 4 -5
19 15 29 -6 36 -27 11 -41 -49 -59 -65 -76 -66 -9 -1 -14 2 -11 7 3 5 0 9 -5
9 -6 0 -11 10 -11 23 l0 22 -19 -25 c-11 -13 -19 -27 -19 -30 2 -20 -3 -40 -9
-38 -5 0 -26 -7 -48 -17 -22 -10 -42 -19 -45 -19 -3 -1 -15 -10 -27 -21 -12
-11 -54 -42 -94 -70 -39 -27 -95 -70 -123 -95 -28 -25 -71 -56 -96 -69 -72
-39 -100 -61 -125 -101 -14 -21 -33 -47 -43 -57 -31 -31 -43 -70 -26 -83 13
-12 18 -7 15 13 -1 4 8 3 20 -4 17 -9 23 -8 30 2 5 8 23 15 41 15 55 2 58 3
52 18 -9 23 27 28 50 7 20 -19 48 -23 62 -8 4 4 16 7 26 7 10 0 18 4 18 9 0 9
51 22 88 21 16 0 21 4 16 13 -4 6 3 3 15 -8 17 -15 24 -16 30 -6 6 9 10 7 14
-8 7 -26 17 -26 45 0 17 15 30 19 51 14 19 -4 34 -1 43 9 8 8 41 17 74 21 32
4 68 12 78 18 11 5 47 12 80 14 66 5 111 26 102 49 -3 8 -1 14 4 14 6 0 10 6
10 14 0 8 5 18 11 22 8 4 10 -5 8 -33 -3 -32 -1 -39 13 -39 10 0 18 6 18 14 0
7 4 11 9 7 5 -3 12 3 14 12 4 15 5 15 6 -2 1 -22 41 -31 41 -9 0 8 12 10 34 7
31 -4 35 -2 41 26 7 34 19 39 33 15 8 -14 12 -12 25 15 8 17 11 31 6 31 -5 0
-9 5 -9 11 0 5 5 7 12 3 8 -5 9 -2 5 9 -4 11 -1 17 8 17 16 0 18 -8 15 -53 -1
-15 3 -27 9 -27 11 0 15 13 12 38 -3 21 9 13 19 -13 11 -28 33 -35 24 -7 -5
13 -4 14 4 3 11 -16 5 -41 -10 -41 -5 0 -8 -6 -7 -12 2 -7 -3 -31 -9 -52 -8
-28 -8 -45 -1 -59 8 -13 8 -17 0 -13 -6 4 -15 -10 -22 -34 -9 -30 -16 -39 -29
-35 -18 6 -64 -28 -53 -39 3 -3 1 -6 -5 -6 -7 0 -12 5 -12 11 0 5 -5 7 -10 4
-6 -4 -8 -16 -5 -28 5 -17 4 -19 -4 -7 -10 14 -15 7 -12 -13 2 -11 -32 -4 -41
8 -4 6 -8 2 -8 -8 0 -9 -12 -23 -27 -30 -16 -6 -34 -19 -41 -27 -8 -8 -11 -10
-9 -5 6 12 -58 14 -70 2 -4 -5 1 -8 12 -7 33 4 46 1 40 -10 -3 -5 -13 -6 -22
-3 -12 5 -14 3 -8 -7 6 -10 3 -12 -13 -8 -12 4 -20 3 -18 -1 9 -14 -11 -31
-43 -37 -30 -6 -33 -5 -27 14 6 17 3 19 -15 15 -16 -5 -20 -3 -14 6 6 10 3 11
-12 3 -11 -6 -25 -7 -33 -2 -17 11 -42 1 -33 -13 4 -6 0 -8 -10 -4 -55 22 -54
22 -34 0 20 -23 12 -37 -13 -21 -10 7 -15 19 -12 30 2 10 -1 18 -7 18 -7 0 -9
-5 -5 -12 5 -8 2 -9 -12 -4 -10 4 -35 10 -55 12 -31 4 -37 2 -35 -13 0 -10 -5
-17 -11 -16 -7 2 -13 -2 -13 -7 0 -14 27 -13 36 1 4 8 9 7 15 -2 8 -12 10 -12
18 -1 7 12 13 11 37 -1 l29 -16 -40 0 c-51 -1 -157 -8 -170 -12 -15 -4 -72 11
-120 32 -28 13 -85 22 -167 29 -244 19 -720 31 -711 18 2 -5 15 -8 29 -8 13 0
24 -5 24 -11 0 -14 -56 -2 -90 19 -26 17 -108 87 -195 167 -27 25 -63 52 -80
60 -48 22 -60 37 -81 94 -13 38 -31 64 -65 92 -40 33 -48 46 -58 95 -15 79
-15 130 2 116 6 -5 29 -13 50 -16 21 -3 53 -14 70 -23 18 -9 34 -17 37 -18 3
0 11 -4 18 -8 9 -6 12 2 12 31 0 21 -3 42 -8 46 -4 4 -12 24 -17 44 -11 37
-18 43 -105 80 -59 25 -225 37 -259 18 -26 -14 -14 -31 17 -22 9 3 42 1 72 -3
30 -5 45 -9 34 -10 -12 0 -40 -7 -62 -15 -37 -13 -43 -13 -81 6 -33 16 -41 25
-41 48 0 31 68 115 101 125 16 5 19 12 14 28 -41 131 -64 361 -45 447 36 157
122 401 180 508 l29 53 -24 48 c-31 61 -55 161 -55 231 0 73 37 340 57 410 9
30 28 80 43 110 16 32 33 89 40 135 23 153 94 341 180 475 51 80 142 175 192
201 l37 19 117 -130 c110 -123 130 -146 179 -215 11 -16 35 -45 53 -65 18 -21
45 -62 61 -91 24 -46 38 -59 94 -89 72 -38 190 -141 251 -219 22 -28 57 -82
78 -122 21 -39 43 -78 49 -85 6 -8 9 -14 5 -14 -4 0 0 -10 7 -22 8 -13 27 -57
42 -100 39 -104 48 -114 80 -100 14 7 34 12 43 12 37 0 209 74 249 106 23 19
47 34 55 34 16 0 18 2 111 180 94 179 109 248 82 364 -10 43 -16 98 -13 139
l3 69 -30 -6 c-30 -6 -137 -21 -210 -31 -22 -2 -45 -1 -51 3 -17 11 -99 167
-134 257 -17 43 -49 145 -71 225 -22 80 -47 170 -56 200 -10 39 -14 86 -11
162 3 94 6 110 26 130 12 14 22 30 22 37 0 16 41 4 58 -18 12 -14 13 -10 7 27
-4 25 -3 42 3 42 14 0 24 29 15 43 -13 20 -11 51 3 74 12 19 12 22 0 17 -16
-6 -28 40 -14 54 6 6 3 20 -8 37 -12 18 -19 51 -21 89 -1 34 -5 78 -8 100 -5
32 -3 37 11 32 8 -3 19 -6 24 -6 4 0 10 -9 13 -20 4 -16 11 -19 39 -14 18 3
39 7 46 10 16 5 15 74 -2 97 -8 10 -12 26 -9 36 2 10 -5 50 -17 90 -19 61 -22
90 -18 179 4 105 5 109 56 212 39 80 60 113 91 135 54 41 63 59 66 128 2 33 7
62 11 66 34 24 47 117 24 161 -10 18 -5 35 35 114 52 105 76 127 155 144 108
25 170 28 521 30 308 2 358 0 369 -13z m1424 -2399 c-2 -14 1 -14 13 -4 12 10
17 9 24 -4 5 -9 17 -14 26 -12 32 8 47 -12 48 -60 0 -31 4 -46 13 -46 7 0 16
-8 19 -17 4 -10 11 -21 17 -25 8 -6 7 -11 -3 -17 -11 -7 -9 -15 11 -42 32 -42
92 -161 109 -214 6 -22 41 -96 76 -165 93 -182 149 -315 168 -400 9 -41 21
-94 27 -118 6 -23 8 -45 5 -48 -3 -3 -1 -20 5 -37 20 -65 42 -158 72 -317 25
-125 25 -129 26 -202 1 -45 7 -71 16 -79 16 -13 16 -13 32 16 11 19 11 18 12
-8 0 -15 -6 -30 -14 -33 -15 -6 -18 -44 -4 -44 4 0 6 -18 4 -39 -3 -42 -23
-70 -45 -63 -10 3 -11 0 -1 -18 8 -15 8 -26 2 -32 -15 -15 -49 0 -55 22 -3 11
-10 20 -16 20 -14 0 -14 -17 -1 -25 16 -10 12 -25 -5 -19 -10 4 -13 2 -10 -8
5 -12 -7 -16 -55 -21 -34 -4 -75 -15 -91 -24 -29 -17 -38 -33 -19 -33 6 0 10
-5 10 -11 0 -6 -6 -9 -12 -6 -15 5 -48 -30 -48 -50 0 -17 10 -16 34 2 22 17
66 20 66 5 0 -5 -5 -10 -11 -10 -6 0 -17 -7 -25 -15 -9 -8 -24 -15 -35 -15
-24 0 -24 -9 -1 -26 16 -12 16 -13 0 -14 -18 0 -51 41 -67 82 -7 19 -6 31 5
47 21 30 96 71 129 71 16 0 25 3 22 7 -13 13 -247 16 -276 3 -33 -13 -81 -20
-81 -11 1 13 90 50 107 44 15 -5 16 -3 5 8 -10 11 -23 11 -73 0 -34 -7 -63
-10 -66 -8 -7 8 -21 124 -33 282 -7 83 -18 173 -25 200 -60 222 -74 524 -34
716 29 138 31 405 4 589 -26 180 -30 253 -13 248 7 -3 12 -13 12 -22z m216
-136 c0 -16 4 -30 10 -30 15 0 93 -104 81 -108 -6 -2 -9 -8 -6 -12 3 -5 13 -7
23 -4 13 5 14 4 3 -4 -10 -7 -10 -11 -1 -17 6 -4 36 -57 65 -119 38 -80 55
-132 63 -186 6 -41 22 -97 35 -125 13 -27 35 -78 48 -112 13 -35 27 -63 31
-63 3 0 8 29 10 65 1 36 1 65 -2 65 -5 0 -40 140 -46 180 -1 8 -6 33 -12 55
-6 22 -14 51 -17 65 l-7 25 21 -25 c11 -14 21 -28 21 -32 0 -5 21 -52 46 -105
26 -54 66 -156 89 -228 55 -164 72 -206 87 -202 6 1 15 -16 20 -38 4 -22 11
-47 14 -55 3 -8 5 -15 4 -15 -1 0 3 -12 9 -27 10 -27 -2 -41 -13 -15 -3 6 -3
-21 0 -61 4 -60 2 -73 -11 -78 -27 -11 -71 49 -74 98 -1 24 -3 55 -5 71 -2 15
1 30 5 33 16 9 10 67 -13 121 -12 29 -25 50 -30 47 -14 -9 -9 -58 8 -82 9 -13
13 -26 10 -29 -8 -9 -42 28 -51 56 -3 12 -28 46 -53 75 -27 30 -55 77 -66 107
-11 30 -27 66 -38 81 -10 14 -18 29 -18 32 0 4 -16 39 -35 80 -20 40 -45 110
-55 155 -23 95 -61 179 -100 225 -31 35 -80 128 -80 151 0 8 7 15 15 15 10 0
15 -10 15 -30z m-1338 -613 c8 4 9 0 3 -13 -4 -10 -14 -46 -22 -79 -22 -89
-12 -362 18 -470 12 -44 21 -87 21 -95 0 -8 3 -24 8 -35 28 -66 50 -147 50
-188 0 -25 5 -49 10 -52 7 -4 7 -13 0 -26 -7 -11 -7 -26 -2 -36 5 -10 15 -72
22 -138 7 -66 18 -133 26 -150 26 -59 43 -142 48 -241 4 -73 12 -115 27 -150
29 -65 37 -248 16 -347 -8 -37 -11 -70 -6 -72 9 -6 9 -45 -1 -60 -6 -8 -6 -48
-1 -77 0 -5 10 -8 21 -8 13 0 20 7 20 20 0 11 -4 20 -10 20 -6 0 0 10 12 22
14 14 18 23 10 26 -7 2 -12 8 -12 13 0 6 5 7 10 4 6 -3 10 -1 10 4 0 6 -5 11
-12 11 -6 0 -3 10 8 21 14 17 16 23 6 26 -11 4 -10 8 1 22 16 18 6 61 -14 61
-8 0 -9 3 0 14 6 7 8 26 5 45 -4 17 -2 37 3 43 11 13 10 30 -2 61 -5 12 -2 17
8 17 17 0 22 -17 36 -130 29 -226 74 -467 107 -574 13 -44 24 -85 24 -92 0
-10 -32 -13 -134 -13 l-135 0 -10 50 c-14 63 -14 102 -1 94 6 -3 10 -2 10 3 0
6 -6 12 -14 15 -16 7 -25 57 -15 86 5 11 4 23 -1 26 -4 3 -8 34 -9 70 0 38 -7
77 -16 94 -15 31 -21 121 -7 121 4 0 8 -17 9 -38 0 -20 7 -50 13 -67 l13 -30
18 56 c9 31 20 74 23 95 4 21 9 47 12 57 3 10 -1 19 -10 23 -9 3 -16 13 -16
21 0 9 6 13 15 9 12 -4 16 2 15 27 0 17 1 52 3 77 2 26 -7 78 -20 124 -15 53
-23 107 -23 160 -1 91 -17 168 -50 241 -12 28 -24 76 -27 108 -3 32 -11 77
-18 100 l-14 42 5 -55 c3 -30 8 -65 11 -78 3 -12 -1 -30 -8 -39 -12 -14 -12
-17 0 -21 9 -3 10 -7 2 -11 -8 -5 -6 -13 6 -27 20 -21 32 -77 13 -58 -6 6 -13
20 -14 30 -2 10 -8 19 -15 20 -6 1 -7 0 -1 -3 5 -2 7 -9 4 -14 -3 -6 0 -17 7
-26 11 -13 10 -17 -5 -29 -26 -18 -32 -12 -42 43 -7 47 -9 56 -14 71 -1 4 -2
10 -1 14 0 3 -7 5 -17 3 -9 -1 -16 -8 -15 -14 5 -19 -15 -12 -33 12 -13 17
-15 18 -10 3 5 -15 4 -17 -8 -7 -7 6 -21 9 -29 5 -12 -4 -18 2 -22 23 -9 43
-36 124 -56 167 -10 21 -16 43 -13 47 3 5 0 9 -5 9 -6 0 -14 18 -17 40 -4 22
-17 51 -29 64 -13 14 -19 26 -15 28 5 2 0 21 -10 43 -12 24 -17 30 -14 15 5
-22 3 -21 -15 8 -34 53 -40 36 -10 -25 70 -144 109 -238 134 -317 15 -47 31
-88 36 -92 5 -3 9 -16 9 -30 0 -13 4 -32 10 -42 24 -42 122 -321 125 -357 3
-25 19 -88 47 -177 27 -90 28 -99 13 -114 -15 -15 -17 -15 -30 2 -8 11 -17 32
-20 47 -4 15 -15 33 -25 40 -18 11 -18 12 -2 32 9 11 13 17 8 12 -6 -4 -17 11
-27 35 -9 24 -28 71 -42 105 -14 34 -23 64 -20 67 3 3 0 12 -7 21 -7 8 -9 15
-6 15 4 0 2 8 -3 18 -5 9 -12 34 -15 55 -6 35 -19 85 -47 174 -13 43 -17 64
-29 160 -6 45 -22 112 -36 150 -24 64 -113 240 -175 345 -15 25 -26 55 -24 65
2 10 4 33 4 52 1 29 3 32 16 21 13 -11 15 -10 11 1 -15 48 -15 69 0 84 12 12
13 19 5 29 -17 20 6 33 25 14 19 -18 168 -349 179 -398 1 -3 12 -27 24 -55 13
-27 27 -61 32 -75 6 -16 7 0 3 45 -3 38 -10 80 -15 93 -5 13 -9 47 -9 75 0 29
-7 90 -15 137 -9 47 -15 121 -14 165 1 61 -2 79 -12 77 -9 -2 -10 0 -2 10 11
13 16 40 14 67 -1 11 -4 11 -16 1 -9 -7 -19 -10 -23 -6 -4 4 2 12 12 18 47 26
94 82 135 159 55 105 65 118 69 95 2 -9 8 -13 14 -9z m1948 -492 c0 -8 5 -15
10 -15 6 0 9 -3 8 -7 0 -5 6 -24 14 -43 9 -19 23 -80 32 -135 8 -55 33 -156
56 -225 22 -69 40 -131 40 -137 0 -7 3 -13 8 -13 4 0 8 -28 8 -63 1 -34 3 -72
6 -85 7 -35 -10 -150 -25 -172 -13 -19 -15 -18 -48 12 -19 17 -68 43 -109 58
-50 19 -74 33 -71 42 3 7 12 41 20 75 9 35 19 63 23 63 18 0 71 -58 90 -99
l22 -46 9 32 c12 39 -9 93 -32 86 -14 -4 -14 -4 -1 6 13 9 13 16 -4 58 -10 26
-19 59 -20 73 0 14 -11 34 -24 46 -18 16 -22 28 -19 58 3 28 0 39 -14 47 -11
5 -16 16 -13 24 4 9 1 21 -5 28 -15 19 -35 217 -21 217 12 0 19 -26 14 -47 -3
-11 2 -25 10 -32 13 -11 16 -11 16 2 0 8 -4 17 -10 19 -6 2 -6 9 0 18 8 13 11
12 24 -5 8 -11 12 -23 10 -27 -3 -4 2 -5 10 -2 22 8 20 29 -9 118 -29 88 -28
86 -15 86 6 0 10 -7 10 -15z m417 -947 c6 -13 10 -25 10 -28 -1 -3 8 -23 20
-45 23 -43 36 -74 38 -90 1 -5 7 -21 12 -35 6 -14 9 -28 6 -32 -2 -4 1 -17 7
-28 8 -15 8 -20 -2 -20 -11 0 -11 -2 0 -8 14 -10 52 -76 52 -93 0 -6 -19 3
-42 20 -23 17 -48 31 -55 31 -8 0 -28 7 -44 16 -24 12 -30 20 -26 36 3 12 1
44 -4 72 -6 28 -12 69 -14 91 -2 22 -5 42 -6 45 -7 21 17 90 31 90 4 0 11 -10
17 -22z m-672 2 c3 -5 17 -10 31 -10 17 0 27 -8 34 -26 14 -35 13 -44 -4 -44
-8 0 -21 -12 -28 -27 -11 -22 -20 -28 -43 -26 -51 4 -99 35 -91 59 3 6 -2 11
-9 10 -8 0 -14 2 -14 7 -3 32 2 37 39 43 22 4 43 11 46 15 7 12 31 11 39 -1z
m-1284 -127 c28 -60 62 -135 76 -168 14 -33 40 -87 58 -120 60 -111 88 -160
97 -172 5 -6 11 -56 13 -110 4 -106 19 -160 67 -230 30 -45 106 -123 120 -123
4 0 8 -4 8 -8 0 -4 -46 -23 -101 -41 -74 -25 -106 -32 -118 -24 -8 5 -26 36
-38 69 -13 32 -27 68 -32 79 -17 37 -24 60 -28 94 -2 19 -8 42 -13 51 -5 9 -7
25 -4 36 3 11 1 39 -5 64 -7 33 -7 46 2 52 9 6 8 8 -2 8 -7 0 -11 6 -8 15 4 8
2 17 -3 20 -6 4 -7 17 -4 30 3 14 2 38 -4 54 -7 20 -7 32 1 40 7 7 5 12 -7 17
-15 6 -15 7 -1 18 15 11 14 21 -10 111 -30 111 -28 105 -84 229 -38 83 -48
116 -36 116 3 0 28 -48 56 -107z m1875 -143 c15 -6 44 -30 65 -53 39 -42 47
-57 30 -57 -5 0 -7 -15 -6 -32 7 -87 -60 -96 -176 -22 -44 28 -53 30 -46 10 3
-7 0 -19 -6 -25 -8 -8 -8 -11 2 -11 7 0 9 -4 6 -10 -8 -13 8 -13 22 1 14 14
55 -10 48 -28 -2 -7 -1 -12 3 -10 4 1 17 -5 29 -14 16 -11 19 -19 12 -29 -8
-13 -12 -12 -28 7 -10 11 -51 37 -92 57 -109 51 -126 101 -49 141 17 9 30 19
30 24 0 5 9 20 21 35 16 21 29 26 64 26 24 0 56 -5 71 -10z m-866 -59 c0 -4
18 -6 41 -4 26 1 42 -3 45 -12 3 -7 13 -13 22 -13 21 1 133 -22 147 -30 5 -3
18 -7 29 -8 11 0 22 -7 24 -14 3 -8 16 -24 28 -37 29 -28 30 -39 7 -48 -16 -6
-15 -8 5 -16 21 -8 22 -11 8 -24 -8 -8 -19 -15 -25 -15 -6 0 -11 -4 -11 -9 0
-5 -13 -23 -30 -41 -20 -22 -35 -30 -48 -26 -11 4 -31 2 -46 -3 -14 -6 -26 -7
-26 -2 0 4 -16 8 -36 9 -19 1 -46 10 -59 21 -14 10 -42 22 -62 26 -21 4 -44
12 -52 18 -8 7 -28 17 -45 22 -31 11 -35 21 -22 63 7 21 6 23 -12 13 -34 -18
-49 -12 -20 7 38 25 71 70 64 87 -3 9 1 15 10 15 10 0 14 6 11 14 -4 11 2 14
24 14 16 -1 29 -4 29 -7z m505 -343 c18 -8 24 -17 19 -30 -3 -10 -2 -18 3 -18
20 0 104 -90 113 -120 23 -80 -76 -128 -157 -76 -52 33 -73 58 -75 92 -1 16
-10 37 -20 47 -41 40 -3 117 57 117 19 0 46 -5 60 -12z m-2680 -276 c-1 -103
-4 -192 -8 -199 -4 -6 -2 -23 4 -36 7 -16 9 -46 5 -81 -7 -50 -12 -59 -52 -92
-24 -20 -48 -33 -52 -29 -4 4 -1 10 6 12 6 3 12 11 12 19 0 9 4 13 9 9 6 -3 9
3 8 14 0 11 -6 19 -11 18 -6 -1 -9 10 -8 26 3 19 -2 29 -15 34 -10 4 -21 11
-25 17 -6 8 -11 7 -17 -2 -7 -11 -9 -11 -13 0 -9 23 0 72 27 142 14 38 23 76
21 83 -3 8 -1 11 4 8 6 -3 10 2 10 11 0 10 3 15 6 12 3 -4 5 -9 5 -12 -1 -4 5
-19 13 -35 9 -16 11 -32 6 -37 -8 -9 -13 -61 -11 -119 1 -22 4 -26 10 -15 13
23 31 141 24 154 -4 6 -6 23 -4 38 1 14 -3 29 -9 33 -9 6 -9 9 1 15 7 5 13 28
14 52 2 50 27 148 38 148 1 0 2 -84 2 -188z m-785 65 c-1 -13 -44 -48 -63 -51
-18 -2 -109 -67 -129 -91 -17 -20 -17 -20 -18 0 -1 18 -2 18 -10 -3 -5 -12
-16 -25 -25 -28 -8 -3 -12 -10 -9 -15 3 -5 -1 -9 -9 -9 -8 0 -17 -7 -21 -15
-3 -8 -15 -15 -27 -15 -12 0 -23 -8 -26 -18 -4 -18 -44 -24 -59 -9 -7 7 9 11
34 8 6 -1 12 5 12 13 0 8 11 23 25 34 14 11 25 26 25 33 0 11 2 11 8 1 12 -18
42 -4 35 15 -4 10 -2 14 4 10 6 -4 13 0 17 8 3 8 11 15 18 15 7 0 19 9 26 21
7 11 18 19 25 16 15 -5 30 10 51 51 9 18 21 30 26 27 6 -4 10 -2 10 4 0 5 15
11 33 13 38 4 47 1 47 -15z m3226 -136 c104 -42 158 -75 151 -94 -5 -16 14
-34 36 -34 12 0 17 8 17 27 0 27 1 27 43 19 54 -10 77 -19 77 -30 0 -4 7 -6
15 -3 10 4 15 0 15 -15 0 -19 -6 -21 -50 -21 -29 0 -61 -7 -74 -16 -24 -15
-44 -5 -31 16 12 19 -29 10 -51 -11 -20 -19 -26 -19 -65 -9 -99 27 -139 47
-139 70 0 11 -1 20 -3 20 -1 0 -17 -4 -36 -10 -22 -6 -40 -6 -52 1 -13 6 -19
6 -19 -1 0 -14 -33 -13 -48 2 -21 21 -15 85 10 108 34 31 91 26 204 -19z
m-103 -137 c12 -4 62 -26 111 -50 49 -24 97 -44 107 -44 37 0 67 -21 65 -46 0
-13 -6 -24 -13 -24 -6 0 -18 -9 -26 -21 -12 -16 -23 -20 -53 -17 -37 3 -39 5
-38 36 1 17 0 32 -3 32 -12 0 -63 -32 -63 -39 0 -13 -60 5 -118 34 -26 13 -59
26 -74 30 -35 9 -48 25 -51 63 -2 27 -4 29 -18 16 -14 -12 -20 -12 -47 2 -60
29 -56 52 6 34 32 -10 45 -10 68 2 28 13 89 10 147 -8z m-253 -192 c14 -6 37
-13 51 -16 22 -5 25 -10 21 -31 -2 -14 -11 -25 -20 -25 -15 0 -15 -1 0 -16 12
-12 14 -24 8 -45 -8 -28 -7 -29 43 -44 29 -8 84 -19 122 -24 l70 -9 -90 4
c-115 5 -118 5 -130 14 -5 4 -35 15 -65 25 -30 10 -61 23 -69 29 -11 8 -13 8
-7 -1 5 -9 2 -11 -8 -7 -9 3 -14 10 -11 14 3 4 -6 11 -19 14 -13 3 -40 21 -61
40 -21 20 -43 32 -49 29 -6 -3 -8 -3 -4 2 4 4 2 17 -4 29 -7 13 4 7 32 -17 43
-39 120 -81 130 -70 3 3 0 8 -6 10 -6 2 -9 14 -7 26 2 14 -5 32 -21 48 -24 26
-24 27 -4 32 11 3 17 10 13 17 -4 7 6 6 27 -3 18 -8 44 -19 58 -25z m-4957
-409 c9 3 18 -1 21 -9 3 -8 14 -14 25 -14 11 0 23 -4 26 -10 3 -5 16 -10 29
-10 12 0 28 -6 34 -12 10 -10 15 -10 21 1 7 10 13 11 27 2 11 -6 13 -11 6 -11
-7 0 -10 -5 -6 -11 3 -6 15 -9 25 -6 10 3 19 1 21 -5 4 -12 41 -18 49 -7 3 5
24 0 47 -11 22 -11 46 -20 51 -20 6 0 25 -8 43 -18 18 -10 53 -24 78 -32 25
-7 54 -21 64 -29 13 -11 17 -12 11 -2 -6 10 -2 12 16 6 45 -14 91 -38 96 -51
3 -8 21 -16 41 -19 35 -6 76 -21 134 -51 14 -8 40 -14 57 -14 21 0 31 -5 31
-15 0 -9 6 -15 13 -14 39 5 54 -2 51 -23 -1 -13 -3 -30 -3 -37 -1 -12 -4 -12
-13 -3 -7 7 -19 12 -28 12 -8 0 -42 11 -75 24 -33 13 -121 47 -195 76 -172 67
-217 87 -226 101 -4 8 -9 7 -14 -2 -7 -10 -14 -9 -34 4 -14 9 -34 17 -46 17
-11 0 -29 9 -40 20 -21 21 -35 27 -25 10 3 -5 -7 -5 -25 1 -16 6 -30 17 -30
24 0 8 -9 11 -25 7 -16 -3 -25 0 -25 8 0 7 -6 10 -14 7 -8 -3 -22 1 -33 8 -10
8 -34 15 -54 15 -19 0 -44 7 -55 16 -18 14 -18 15 6 9 59 -15 62 -13 15 9 -43
20 -51 21 -56 8 -4 -11 -10 -8 -27 14 -12 16 -19 21 -16 12 3 -10 1 -18 -4
-18 -18 0 -23 19 -11 41 8 16 13 18 19 9 4 -7 15 -10 23 -7z m5069 -86 c37 1
68 -2 68 -7 0 -4 -7 -7 -16 -6 -9 0 -19 -4 -21 -10 -2 -7 10 -10 34 -9 21 2
30 1 21 -2 -21 -5 -23 -14 -6 -31 9 -9 9 -12 1 -12 -7 0 -15 5 -18 10 -11 18
-25 11 -25 -12 0 -16 -3 -19 -11 -11 -6 6 -35 9 -72 6 -58 -5 -64 -3 -93 23
-17 16 -39 34 -50 41 -17 10 -14 12 21 13 22 1 49 5 60 9 11 5 24 6 29 3 5 -3
40 -5 78 -5z m-3307 -651 c8 -7 12 -16 9 -18 -2 -3 11 -4 30 -2 34 2 44 -11
21 -28 -5 -4 0 -8 11 -8 14 0 24 8 27 21 3 12 10 18 16 15 7 -5 7 -14 -2 -29
-19 -34 -30 -43 -60 -51 -32 -8 -27 -22 11 -39 l27 -11 -28 -4 c-30 -4 -27
-22 4 -22 22 0 23 -4 7 -30 -7 -10 -10 -22 -7 -25 10 -9 38 6 35 18 -1 7 -1 9
1 5 3 -5 11 -8 18 -8 8 0 16 -4 20 -9 3 -6 -3 -10 -12 -10 -10 0 -35 -2 -55
-4 -21 -2 -35 0 -32 4 8 13 14 53 7 45 -3 -3 -12 -1 -19 5 -10 9 -15 7 -20 -4
-4 -11 -15 -14 -40 -10 -19 3 -34 1 -34 -4 0 -5 -16 -9 -35 -9 -26 1 -35 5
-35 18 0 11 -6 15 -20 11 -22 -6 -26 7 -8 25 9 9 4 11 -22 9 -19 -2 -49 0 -66
4 -38 8 -72 -7 -37 -17 13 -4 20 -11 16 -20 -3 -8 -1 -14 5 -14 6 0 12 5 14
12 3 8 12 4 26 -10 15 -15 18 -22 8 -22 -8 0 -17 6 -20 13 -5 10 -7 10 -12 0
-3 -7 -12 -13 -20 -13 -8 0 -14 -3 -14 -7 0 -5 -22 -8 -50 -8 -27 0 -50 4 -50
8 0 5 -8 6 -17 3 -10 -3 -30 1 -45 8 -17 9 -28 10 -30 4 -3 -7 -16 -7 -42 1
-22 5 -44 7 -49 4 -6 -4 -7 -1 -2 6 4 7 16 11 26 8 11 -3 22 0 27 7 4 7 16 16
27 21 18 7 19 8 2 12 -10 3 -28 -2 -41 -10 -23 -15 -23 -15 -20 18 2 27 -1 34
-14 33 -52 -4 -72 2 -72 23 0 13 10 23 31 31 23 8 29 15 26 29 -6 23 18 26 27
4 3 -8 0 -15 -6 -15 -23 0 9 -22 43 -29 29 -6 31 -8 17 -22 -14 -14 -12 -15
29 -14 25 1 48 7 52 12 3 6 17 9 31 8 14 -1 38 -3 53 -4 16 0 26 -5 22 -11 -3
-5 -1 -10 4 -10 6 0 11 5 11 11 0 5 5 7 11 4 6 -4 8 -13 5 -21 -5 -14 9 -18
49 -14 23 2 46 20 26 20 -8 0 0 17 18 42 24 32 38 42 66 45 19 2 35 -1 35 -6
0 -5 -14 -11 -32 -13 -17 -2 -33 -10 -35 -18 -4 -13 -3 -13 6 0 7 10 11 11 11
3 0 -19 32 -15 60 7 14 11 33 20 42 20 9 0 20 5 23 10 4 7 -2 9 -19 4 -26 -6
-37 10 -13 19 20 9 28 8 42 -7z"/>
<path d="M4067 7893 c5 -13 2 -15 -11 -10 -10 4 -27 0 -39 -8 -12 -8 -31 -15
-42 -15 -15 0 -17 -2 -6 -9 11 -7 10 -10 -5 -14 -18 -4 -18 -5 0 -6 11 -1 16
-6 13 -14 -6 -16 29 -41 38 -27 3 6 13 10 21 10 8 0 12 -4 9 -10 -3 -5 -2 -10
3 -10 6 0 12 7 16 15 11 29 36 17 36 -17 l0 -32 17 24 c12 17 13 25 5 28 -23
7 -12 21 16 18 15 -2 19 -1 10 1 -20 5 -24 28 -7 39 7 4 16 -1 21 -10 13 -23
26 -20 26 8 0 18 -7 26 -25 31 -13 3 -28 3 -34 0 -5 -4 -16 1 -25 9 -21 22
-45 21 -37 -1z"/>
<path d="M2498 3764 c-27 -25 -48 -49 -48 -55 0 -5 -7 -9 -17 -9 -9 0 -13 -3
-10 -7 11 -10 -13 -33 -35 -33 -11 0 -16 -4 -12 -11 4 -8 -1 -9 -16 -4 -19 6
-21 4 -15 -17 5 -17 4 -19 -4 -8 -8 11 -22 2 -75 -50 -36 -35 -62 -68 -59 -73
3 -6 1 -7 -5 -3 -6 3 -21 -8 -33 -26 -13 -18 -31 -41 -40 -52 -10 -10 -15 -25
-12 -33 5 -12 1 -14 -15 -8 -16 5 -22 2 -22 -9 0 -9 -4 -16 -10 -16 -5 0 -7
-6 -4 -14 3 -8 -3 -17 -14 -20 -22 -7 -92 -87 -92 -105 0 -6 -5 -11 -11 -11
-6 0 -9 -6 -6 -14 3 -8 -2 -16 -15 -19 -11 -3 -18 -12 -16 -19 3 -7 -1 -19 -9
-26 -15 -16 -17 -32 -3 -32 6 0 10 -5 10 -12 0 -9 -3 -9 -12 0 -17 17 -28 15
-28 -7 0 -10 -6 -24 -14 -30 -8 -7 -13 -28 -11 -56 1 -25 -1 -48 -5 -50 -4 -2
-6 12 -5 31 1 36 -17 42 -24 8 -2 -10 -8 -22 -15 -26 -8 -6 -7 -8 2 -8 22 0
13 -18 -13 -24 -15 -4 -22 -11 -19 -20 3 -7 -2 -16 -11 -20 -13 -5 -14 -10 -5
-27 10 -19 9 -20 -9 -14 -14 4 -23 0 -30 -14 -14 -25 -14 -31 -1 -31 6 0 10 7
10 15 0 8 6 12 13 9 31 -11 163 157 134 170 -8 3 -4 11 10 24 17 15 19 22 10
32 -9 10 -8 11 8 6 15 -4 24 2 37 28 9 19 15 45 12 58 -4 21 -3 21 5 3 8 -18
9 -19 16 -2 4 9 5 24 1 32 -3 8 -1 15 4 15 6 0 10 -5 10 -11 0 -6 7 -4 15 5 8
8 15 17 15 20 0 8 74 109 125 171 22 27 119 129 217 226 147 147 212 220 196
219 -2 0 -24 -21 -50 -46z"/>
</g>
</svg>
